<svg width="220" height="220" viewBox="0 0 220 220" fill="none" xmlns="http://www.w3.org/2000/svg">
<rect x="26" y="26" width="168" height="168" fill="white"/>
<mask id="mask0_1090_57" style="mask-type:luminance" maskUnits="userSpaceOnUse" x="0" y="0" width="220" height="220">
<path d="M110 0H24.9132C18.0822 0 11.8539 2.81407 7.33333 7.23618C2.81278 11.7588 0 17.9899 0 24.9246V195.075C0 201.91 2.81278 208.241 7.33333 212.663C11.8539 217.186 18.0822 220 24.9132 220H195.087C201.918 220 208.146 217.186 212.667 212.663C217.187 208.241 220 201.91 220 195.075V24.9246C220 17.9899 217.187 11.7588 212.667 7.23618C208.146 2.81407 201.918 0 195.087 0H110ZM145.16 55.2764C143.753 53.8693 142.849 51.8593 142.849 49.6482C142.849 47.4372 143.753 45.4271 145.16 43.9196C146.667 42.5126 148.676 41.608 150.886 41.608H174.393C176.603 41.608 178.612 42.5126 180.018 43.9196C181.525 45.4271 182.429 47.4372 182.429 49.6482C182.429 51.8593 181.525 53.8693 180.018 55.2764C178.612 56.7839 176.603 57.6884 174.393 57.6884H150.886C148.676 57.6884 146.667 56.7839 145.16 55.2764ZM39.8813 55.2764C38.4749 53.8693 37.5708 51.8593 37.5708 49.6482C37.5708 47.4372 38.4749 45.4271 39.8813 43.9196C41.3881 42.5126 43.3973 41.608 45.6073 41.608H69.1142C71.3242 41.608 73.3333 42.5126 74.8402 43.9196C76.2466 45.4271 77.1507 47.4372 77.1507 49.6482C77.1507 51.8593 76.2466 53.8693 74.8402 55.2764C73.3333 56.7839 71.3242 57.6884 69.1142 57.6884H45.6073C43.3973 57.6884 41.3881 56.7839 39.8813 55.2764ZM134.612 85.5276C133.105 84.0201 132.301 82.01 132.301 79.799C132.301 77.5879 133.105 75.5779 134.612 74.1709C136.018 72.6633 138.027 71.7588 140.237 71.7588H174.393C176.603 71.7588 178.612 72.6633 180.018 74.1709C181.525 75.5779 182.429 77.5879 182.429 79.799C182.429 82.01 181.525 84.0201 180.018 85.5276C178.612 86.9347 176.603 87.8392 174.393 87.8392H140.237C138.027 87.8392 136.018 86.9347 134.612 85.5276ZM39.8813 85.5276C38.4749 84.0201 37.5708 82.01 37.5708 79.799C37.5708 77.5879 38.4749 75.5779 39.8813 74.1709C41.3881 72.6633 43.3973 71.7588 45.6073 71.7588H79.6621C81.8721 71.7588 83.8813 72.6633 85.3881 74.1709C86.7945 75.5779 87.6986 77.5879 87.6986 79.799C87.6986 82.01 86.7945 84.0201 85.3881 85.5276C83.8813 86.9347 81.8721 87.8392 79.6621 87.8392H45.6073C43.3973 87.8392 41.3881 86.9347 39.8813 85.5276ZM39.8813 115.678C38.4749 114.271 37.5708 112.261 37.5708 109.95C37.5708 107.739 38.4749 105.729 39.8813 104.322C41.3881 102.915 43.3973 102.01 45.6073 102.01H174.393C176.603 102.01 178.612 102.915 180.018 104.322C181.525 105.729 182.429 107.739 182.429 109.95C182.429 112.261 181.525 114.271 180.018 115.678C178.612 117.085 176.603 117.99 174.393 117.99H45.6073C43.3973 117.99 41.3881 117.085 39.8813 115.678ZM134.612 145.829C133.105 144.422 132.301 142.412 132.301 140.201C132.301 137.99 133.105 135.98 134.612 134.472C136.018 133.065 138.027 132.161 140.237 132.161H174.393C176.603 132.161 178.612 133.065 180.018 134.472C181.525 135.98 182.429 137.99 182.429 140.201C182.429 142.412 181.525 144.422 180.018 145.829C178.612 147.337 176.603 148.241 174.393 148.241H140.237C138.027 148.241 136.018 147.337 134.612 145.829ZM39.8813 145.829C38.4749 144.422 37.5708 142.412 37.5708 140.201C37.5708 137.99 38.4749 135.98 39.8813 134.472C41.3881 133.065 43.3973 132.161 45.6073 132.161H79.6621C81.8721 132.161 83.8813 133.065 85.3881 134.472C86.7945 135.98 87.6986 137.99 87.6986 140.201C87.6986 142.412 86.7945 144.422 85.3881 145.829C83.8813 147.337 81.8721 148.241 79.6621 148.241H45.6073C43.3973 148.241 41.3881 147.337 39.8813 145.829ZM145.16 176.08C143.753 174.573 142.849 172.563 142.849 170.352C142.849 168.141 143.753 166.131 145.16 164.724C146.667 163.216 148.676 162.312 150.886 162.312H174.393C176.603 162.312 178.612 163.216 180.018 164.724C181.525 166.131 182.429 168.141 182.429 170.352C182.429 172.563 181.525 174.573 180.018 176.08C178.612 177.487 176.603 178.392 174.393 178.392H150.886C148.676 178.392 146.667 177.487 145.16 176.08ZM39.8813 176.08C38.4749 174.573 37.5708 172.563 37.5708 170.352C37.5708 168.141 38.4749 166.131 39.8813 164.724C41.3881 163.216 43.3973 162.312 45.6073 162.312H69.1142C71.3242 162.312 73.3333 163.216 74.8402 164.724C76.2466 166.131 77.1507 168.141 77.1507 170.352C77.1507 172.563 76.2466 174.573 74.8402 176.08C73.3333 177.487 71.3242 178.392 69.1142 178.392H45.6073C43.3973 178.392 41.3881 177.487 39.8813 176.08Z" fill="white"/>
</mask>
<g mask="url(#mask0_1090_57)">
<path d="M728.549 -491.47L1120.54 187.794L212.578 712.248L-179.416 32.9834L728.549 -491.47Z" fill="url(#paint0_linear_1090_57)"/>
</g>
<defs>
<linearGradient id="paint0_linear_1090_57" x1="39.4387" y1="-12.2547" x2="180.636" y2="232.195" gradientUnits="userSpaceOnUse">
<stop stop-color="#43B1FF"/>
<stop offset="0.235577" stop-color="#1E70FF"/>
<stop offset="0.557692" stop-color="#8B1FC0"/>
<stop offset="0.927885" stop-color="#D512CD"/>
</linearGradient>
</defs>
</svg>
