<svg width="1125" height="180" viewBox="0 0 1125 180" fill="none" xmlns="http://www.w3.org/2000/svg">
<rect x="20" y="20" width="140" height="140" fill="white"/>
<mask id="mask0_1062_117" style="mask-type:luminance" maskUnits="userSpaceOnUse" x="0" y="0" width="180" height="180">
<path d="M90 0H20.3836C14.7945 0 9.69863 2.30242 6 5.92051C2.30137 9.62083 0 14.719 0 20.3929V159.607C0 165.199 2.30137 170.379 6 173.997C9.69863 177.698 14.7945 180 20.3836 180H159.616C165.205 180 170.301 177.698 174 173.997C177.699 170.379 180 165.199 180 159.607V20.3929C180 14.719 177.699 9.62083 174 5.92051C170.301 2.30242 165.205 0 159.616 0H90ZM118.767 45.2261C117.616 44.0749 116.877 42.4303 116.877 40.6213C116.877 38.8122 117.616 37.1677 118.767 35.9342C120 34.783 121.644 34.0429 123.452 34.0429H142.685C144.493 34.0429 146.137 34.783 147.288 35.9342C148.521 37.1677 149.26 38.8122 149.26 40.6213C149.26 42.4303 148.521 44.0749 147.288 45.2261C146.137 46.4596 144.493 47.1996 142.685 47.1996H123.452C121.644 47.1996 120 46.4596 118.767 45.2261ZM32.6301 45.2261C31.4795 44.0749 30.7397 42.4303 30.7397 40.6213C30.7397 38.8122 31.4795 37.1677 32.6301 35.9342C33.863 34.783 35.5068 34.0429 37.3151 34.0429H56.548C58.3562 34.0429 60 34.783 61.2329 35.9342C62.3836 37.1677 63.1233 38.8122 63.1233 40.6213C63.1233 42.4303 62.3836 44.0749 61.2329 45.2261C60 46.4596 58.3562 47.1996 56.548 47.1996H37.3151C35.5068 47.1996 33.863 46.4596 32.6301 45.2261ZM110.137 69.9772C108.904 68.7437 108.247 67.0991 108.247 65.2901C108.247 63.481 108.904 61.8365 110.137 60.6852C111.288 59.4518 112.932 58.7117 114.74 58.7117H142.685C144.493 58.7117 146.137 59.4518 147.288 60.6852C148.521 61.8365 149.26 63.481 149.26 65.2901C149.26 67.0991 148.521 68.7437 147.288 69.9772C146.137 71.1284 144.493 71.8684 142.685 71.8684H114.74C112.932 71.8684 111.288 71.1284 110.137 69.9772ZM32.6301 69.9772C31.4795 68.7437 30.7397 67.0991 30.7397 65.2901C30.7397 63.481 31.4795 61.8365 32.6301 60.6852C33.863 59.4518 35.5068 58.7117 37.3151 58.7117H65.1781C66.9863 58.7117 68.6301 59.4518 69.863 60.6852C71.0137 61.8365 71.7534 63.481 71.7534 65.2901C71.7534 67.0991 71.0137 68.7437 69.863 69.9772C68.6301 71.1284 66.9863 71.8684 65.1781 71.8684H37.3151C35.5068 71.8684 33.863 71.1284 32.6301 69.9772ZM32.6301 94.646C31.4795 93.4947 30.7397 91.8502 30.7397 89.9589C30.7397 88.1498 31.4795 86.5052 32.6301 85.354C33.863 84.2028 35.5068 83.4628 37.3151 83.4628H142.685C144.493 83.4628 146.137 84.2028 147.288 85.354C148.521 86.5052 149.26 88.1498 149.26 89.9589C149.26 91.8502 148.521 93.4947 147.288 94.646C146.137 95.7972 144.493 96.5372 142.685 96.5372H37.3151C35.5068 96.5372 33.863 95.7972 32.6301 94.646ZM110.137 119.315C108.904 118.164 108.247 116.519 108.247 114.71C108.247 112.901 108.904 111.256 110.137 110.023C111.288 108.872 112.932 108.132 114.74 108.132H142.685C144.493 108.132 146.137 108.872 147.288 110.023C148.521 111.256 149.26 112.901 149.26 114.71C149.26 116.519 148.521 118.164 147.288 119.315C146.137 120.548 144.493 121.288 142.685 121.288H114.74C112.932 121.288 111.288 120.548 110.137 119.315ZM32.6301 119.315C31.4795 118.164 30.7397 116.519 30.7397 114.71C30.7397 112.901 31.4795 111.256 32.6301 110.023C33.863 108.872 35.5068 108.132 37.3151 108.132H65.1781C66.9863 108.132 68.6301 108.872 69.863 110.023C71.0137 111.256 71.7534 112.901 71.7534 114.71C71.7534 116.519 71.0137 118.164 69.863 119.315C68.6301 120.548 66.9863 121.288 65.1781 121.288H37.3151C35.5068 121.288 33.863 120.548 32.6301 119.315ZM118.767 144.066C117.616 142.832 116.877 141.188 116.877 139.379C116.877 137.57 117.616 135.925 118.767 134.774C120 133.54 121.644 132.8 123.452 132.8H142.685C144.493 132.8 146.137 133.54 147.288 134.774C148.521 135.925 149.26 137.57 149.26 139.379C149.26 141.188 148.521 142.832 147.288 144.066C146.137 145.217 144.493 145.957 142.685 145.957H123.452C121.644 145.957 120 145.217 118.767 144.066ZM32.6301 144.066C31.4795 142.832 30.7397 141.188 30.7397 139.379C30.7397 137.57 31.4795 135.925 32.6301 134.774C33.863 133.54 35.5068 132.8 37.3151 132.8H56.548C58.3562 132.8 60 133.54 61.2329 134.774C62.3836 135.925 63.1233 137.57 63.1233 139.379C63.1233 141.188 62.3836 142.832 61.2329 144.066C60 145.217 58.3562 145.957 56.548 145.957H37.3151C35.5068 145.957 33.863 145.217 32.6301 144.066Z" fill="white"/>
</mask>
<g mask="url(#mask0_1062_117)">
<path d="M596.086 -402.111L916.808 153.65L173.928 582.748L-146.794 26.9867L596.086 -402.111Z" fill="url(#paint0_linear_1062_117)"/>
</g>
<path d="M272.205 38.0925C272.946 38.0925 273.667 38.2777 274.204 38.7869C274.75 39.3046 274.948 40.006 274.948 40.7V68.5242C279.885 66.6012 285.672 65.3601 292.18 65.3601C301.383 65.3602 309.606 67.6982 315.536 73.0388C321.485 78.3963 324.981 86.6434 324.981 98.1492V141.732C324.981 142.433 324.776 143.134 324.226 143.649C323.686 144.154 322.964 144.34 322.224 144.34H313.627C312.927 144.34 312.242 144.136 311.732 143.627C311.223 143.117 311.019 142.432 311.019 141.732V98.5847C311.019 90.8511 309.191 85.807 305.963 82.6794C302.73 79.5465 297.897 78.1463 291.458 78.1462C285.425 78.1462 279.415 79.4654 274.948 81.574V141.732C274.948 142.426 274.75 143.127 274.204 143.645C273.667 144.154 272.946 144.34 272.205 144.34H263.593C262.893 144.34 262.208 144.136 261.701 143.622C261.196 143.11 261 142.425 261 141.732V40.7C261 40.0072 261.196 39.3231 261.701 38.8113C262.208 38.2975 262.893 38.0926 263.593 38.0925H272.205Z" fill="white" stroke="white" stroke-width="2"/>
<path d="M352.847 66.9675C353.643 66.9675 354.368 67.2184 354.89 67.7664C355.403 68.3058 355.606 69.0139 355.606 69.7107V111.415C355.606 117.873 357.802 122.19 361.224 124.919C364.683 127.678 369.533 128.924 375.016 128.924C380.774 128.924 386.494 127.605 390.654 125.394V69.7107C390.654 69.021 390.847 68.329 391.316 67.7957C391.799 67.2457 392.484 66.9675 393.246 66.9675H401.859C402.655 66.9676 403.38 67.219 403.899 67.7712C404.407 68.3129 404.602 69.0205 404.602 69.7107V141.297C404.602 151.286 402.161 159.338 396.874 164.911C391.58 170.492 383.588 173.423 372.843 173.5H372.836C360.627 173.5 351.804 169.76 344.04 163.198L344.012 163.175L343.987 163.149C343.489 162.662 343.149 162.072 343.115 161.354C343.084 160.677 343.334 160.04 343.668 159.458L343.696 159.41L343.729 159.365L348.102 153.385C348.485 152.828 349.035 152.346 349.75 152.185C350.502 152.017 351.236 152.249 351.858 152.744L352.41 153.157C358.14 157.395 364.649 160.569 372.841 160.713C378.962 160.637 383.453 159.14 386.381 156.031C389.316 152.914 390.868 147.978 390.654 140.604V138.682C385.553 140.63 379.453 142.011 373.558 142.011C365.497 142.011 357.528 139.625 351.554 134.655C345.555 129.664 341.642 122.125 341.642 112.001V69.7107C341.642 69.0147 341.842 68.3222 342.316 67.7908C342.802 67.2448 343.489 66.9675 344.25 66.9675H352.847Z" fill="white" stroke="white" stroke-width="2"/>
<path d="M453.043 65.3599C462.68 65.3599 471.081 67.7675 477.083 73.1235C483.106 78.4974 486.567 86.7088 486.567 97.9995V114.029C486.567 124.108 483.203 132.119 477.337 137.604C471.481 143.081 463.233 145.947 453.629 145.947C447.409 145.947 441.421 144.471 436.549 142.077V169.435C436.549 170.136 436.343 170.837 435.792 171.352C435.253 171.857 434.531 172.042 433.791 172.042H425.194C424.494 172.042 423.809 171.839 423.299 171.33C422.79 170.82 422.585 170.135 422.585 169.435V73.5112C422.585 72.9742 422.669 72.3827 422.965 71.8521C423.269 71.3068 423.754 70.9062 424.397 70.686V70.6851C432.822 67.426 443.586 65.3599 453.043 65.3599ZM452.758 77.8608C446.845 77.8608 440.862 78.7815 436.549 80.4507V128.519C440.98 131.439 446.602 133.295 452.893 133.295C459.324 133.295 464.176 131.798 467.421 128.742C470.655 125.696 472.468 120.938 472.468 114.029V97.9995C472.468 90.5019 470.575 85.5294 467.29 82.4155C463.994 79.2921 459.114 77.8609 452.758 77.8608Z" fill="white" stroke="white" stroke-width="2"/>
<path d="M531.212 65.3599C539.34 65.3599 547.207 67.6707 553.06 72.6138C558.938 77.5779 562.692 85.1203 562.692 95.3696V109.657C562.692 110.391 562.513 111.112 562.013 111.654C561.501 112.209 560.801 112.415 560.099 112.415H513.395V117.53C513.395 122.726 515.326 126.627 518.472 129.246C521.641 131.884 526.137 133.295 531.363 133.295C541.13 133.295 547.771 129.492 553.065 125.35L553.093 125.328L553.123 125.308C553.718 124.908 554.416 124.694 555.133 124.826C555.836 124.954 556.4 125.386 556.805 125.967H556.806L561.03 131.511H561.029C561.484 132.063 561.792 132.729 561.685 133.479C561.58 134.215 561.11 134.78 560.591 135.21L560.592 135.211C553.147 141.472 543.591 145.947 531.077 145.947C523.016 145.947 515.088 143.637 509.152 138.911C503.189 134.163 499.296 127.021 499.296 117.53V95.3696C499.296 85.1134 503.131 77.5702 509.101 72.6089C515.045 67.6695 523.019 65.3599 531.212 65.3599ZM531.212 78.147C525.903 78.147 521.466 79.5277 518.368 82.3042C515.287 85.0643 513.395 89.3236 513.395 95.3696V100.5H549.029V95.3696C549.029 89.405 547.074 85.1411 543.952 82.3569C540.81 79.5565 536.368 78.147 531.212 78.147Z" fill="white" stroke="white" stroke-width="2"/>
<path d="M604.427 65.3599C608.688 65.3599 613.055 65.6973 617.615 66.2778L619.581 66.5415L619.588 66.5425L619.857 66.5933C620.473 66.7374 620.997 67.0571 621.367 67.5591C621.773 68.1107 621.915 68.7776 621.915 69.4243V76.561C621.915 77.2775 621.739 78.0646 621.134 78.5952C620.525 79.1297 619.737 79.1829 619.003 79.021C614.949 78.4405 610.344 78.0113 606.036 78.0112C600.493 78.0112 595.084 79.1626 591.285 80.6079V141.732C591.285 142.433 591.079 143.134 590.528 143.649C589.988 144.154 589.267 144.339 588.526 144.339H579.929C579.229 144.339 578.544 144.136 578.035 143.626C577.525 143.117 577.321 142.432 577.321 141.732V73.646C577.321 73.1134 577.406 72.5273 577.701 71.9985C577.998 71.4654 578.468 71.0668 579.091 70.8364C586.525 67.2735 595.695 65.3599 604.427 65.3599Z" fill="white" stroke="white" stroke-width="2"/>
<path d="M657.951 36.5C660.523 36.5 663.327 36.6039 665.782 36.835L666.811 36.9424L666.825 36.9434L667.111 36.9912C667.766 37.1256 668.329 37.4285 668.729 37.9395C669.171 38.5043 669.306 39.1895 669.306 39.8291V46.8291C669.306 47.5286 669.103 48.1967 668.635 48.6982C668.162 49.2064 667.516 49.4365 666.848 49.4365H666.78L666.712 49.4277C664.573 49.1349 661.855 48.9863 659.559 48.9863C655.188 48.9863 651.947 50.3982 649.784 52.873C647.603 55.3683 646.401 59.0775 646.401 63.8809V67.6885H665.541C666.237 67.6885 666.918 67.8947 667.424 68.4043C667.93 68.913 668.134 69.5961 668.134 70.2959V77.582C668.134 78.3227 667.948 79.043 667.447 79.582C666.935 80.1322 666.238 80.3398 665.541 80.3398H646.401V141.732C646.401 142.426 646.203 143.127 645.657 143.645C645.119 144.154 644.398 144.34 643.658 144.34H635.045C634.345 144.34 633.661 144.135 633.154 143.621C632.649 143.109 632.453 142.425 632.453 141.732V64.0312C632.453 55.0742 635.18 48.1683 639.794 43.499C644.406 38.8322 650.804 36.5 657.951 36.5Z" fill="white" stroke="white" stroke-width="2"/>
<path d="M708.991 65.3599C719.111 65.3599 727.392 68.4125 733.153 73.7358C738.921 79.065 742.079 86.5942 742.079 95.3696V116.373C742.079 125.15 738.919 132.574 733.145 137.795C727.381 143.009 719.101 145.947 708.991 145.947C698.955 145.947 690.676 143.008 684.894 137.797C679.103 132.578 675.903 125.154 675.903 116.373V95.3696C675.903 86.5906 679.102 79.0622 684.887 73.7349C690.665 68.4134 698.945 65.3599 708.991 65.3599ZM708.991 78.147C702.677 78.147 697.956 79.8833 694.82 82.8345C691.691 85.7791 690.018 90.0484 690.017 95.3696V116.373C690.017 121.622 691.688 125.814 694.813 128.701C697.948 131.597 702.671 133.295 708.991 133.295C715.389 133.295 720.15 131.595 723.303 128.699C726.445 125.812 728.116 121.622 728.116 116.373V95.3696C728.116 90.0486 726.442 85.7806 723.296 82.8364C720.142 79.8849 715.383 78.147 708.991 78.147Z" fill="white" stroke="white" stroke-width="2"/>
<path d="M784.393 65.3599C788.654 65.3599 793.021 65.6973 797.581 66.2778L799.546 66.5415L799.553 66.5425L799.823 66.5933C800.439 66.7374 800.963 67.0571 801.333 67.5591C801.738 68.1107 801.88 68.7776 801.88 69.4243V76.561C801.88 77.2775 801.705 78.0646 801.1 78.5952C800.491 79.1297 799.703 79.1829 798.968 79.021C794.915 78.4405 790.31 78.0113 786.001 78.0112C780.458 78.0112 775.05 79.1626 771.25 80.6079V141.732C771.25 142.433 771.044 143.134 770.494 143.649C769.954 144.154 769.232 144.339 768.492 144.339H759.895C759.195 144.339 758.51 144.136 758 143.626C757.491 143.117 757.287 142.432 757.287 141.732V73.646C757.287 73.1134 757.372 72.5273 757.667 71.9985C757.964 71.4654 758.434 71.0668 759.057 70.8364C766.491 67.2735 775.661 65.3599 784.393 65.3599Z" fill="white" stroke="white" stroke-width="2"/>
<path d="M882.975 65.3599C892.062 65.3599 899.879 68.005 905.431 73.2319C910.993 78.4677 914.169 86.1879 914.169 96.106V141.732C914.169 142.432 913.966 143.115 913.46 143.624C912.954 144.133 912.273 144.339 911.577 144.339H902.964C902.224 144.339 901.503 144.154 900.965 143.645C900.419 143.127 900.221 142.426 900.221 141.732V95.8052C900.221 90.1364 898.767 85.7567 895.938 82.7954C893.117 79.8422 888.781 78.147 882.69 78.147C877.093 78.147 872 79.7866 867.903 82.4653C869.504 86.2785 870.418 90.9361 870.418 95.9556V141.732C870.418 142.432 870.214 143.117 869.705 143.626C869.195 144.136 868.51 144.339 867.81 144.339H859.063C858.363 144.339 857.678 144.136 857.168 143.626C856.659 143.117 856.455 142.432 856.455 141.732V95.8052C856.455 89.7495 855.063 85.3757 852.405 82.5151C849.76 79.6686 845.697 78.147 839.96 78.147C834.442 78.147 830.067 79.1656 826.232 80.4839V141.732C826.232 142.433 826.026 143.134 825.475 143.649C824.935 144.154 824.214 144.339 823.473 144.339H814.876C814.177 144.339 813.492 144.136 812.982 143.626C812.472 143.117 812.268 142.432 812.268 141.732V74.0972C812.268 73.554 812.355 72.9582 812.672 72.4067C812.996 71.8459 813.501 71.4293 814.164 71.1431V71.1421C822.009 67.5941 830.596 65.3599 839.66 65.3599C848.438 65.3599 855.351 67.8661 860.6 72.2603C867.514 67.7668 874.264 65.3599 882.975 65.3599Z" fill="white" stroke="white" stroke-width="2"/>
<path d="M958.96 65.3599C968.1 65.3599 975.634 67.7751 980.887 72.7231C986.15 77.6805 988.983 85.0463 988.983 94.6489V138.382C988.983 139.607 988.341 140.767 987.014 141.214L987.015 141.215C980.056 143.732 969.586 145.947 958.525 145.947C950.246 145.947 942.191 144.288 936.173 140.332C930.101 136.339 926.173 130.048 926.173 121.03C926.173 112.992 929.495 106.887 935.275 102.83C941.008 98.8045 949.074 96.8491 958.525 96.8491C964.125 96.8491 970.208 97.6159 975.019 98.4224V94.9341C975.019 89.1364 973.834 84.9965 971.3 82.2964C968.779 79.6095 964.73 78.147 958.525 78.147C950.543 78.147 943.281 80.4422 938.327 83.3989L938.326 83.3979C937.767 83.7622 937.112 83.9887 936.414 83.8491C935.699 83.7061 935.17 83.2268 934.791 82.6626V82.6616L930.574 76.5581L930.532 76.4976L930.5 76.4312C930.282 75.9893 930.047 75.462 930.015 74.9126C929.978 74.2648 930.223 73.7069 930.69 73.2397L930.756 73.1733L930.833 73.1206C937.878 68.3178 947.566 65.3599 958.96 65.3599ZM958.525 109.065C951.988 109.065 947.375 110.29 944.421 112.363C941.523 114.397 940.122 117.318 940.122 121.03C940.122 125.042 941.969 128.054 945.155 130.107C948.385 132.189 953.025 133.295 958.525 133.295C964.627 133.295 970.734 132.143 975.019 130.93V110.641C970.44 109.83 964.088 109.065 958.525 109.065Z" fill="white" stroke="white" stroke-width="2"/>
<path d="M1036.12 65.3599C1046.02 65.3599 1054.5 67.6903 1060.51 72.9946C1066.54 78.3189 1069.92 86.4986 1069.92 97.8491V141.732C1069.92 142.433 1069.72 143.132 1069.17 143.647C1068.64 144.153 1067.92 144.339 1067.18 144.339H1058.57C1057.87 144.339 1057.18 144.136 1056.68 143.626C1056.17 143.117 1055.96 142.432 1055.96 141.732V98.1489C1055.96 90.7208 1054.07 85.7841 1050.77 82.687C1047.46 79.5785 1042.55 78.147 1036.12 78.147C1030.4 78.147 1024.29 79.1876 1019.91 80.5122V141.732C1019.91 142.433 1019.7 143.134 1019.15 143.649C1018.61 144.154 1017.89 144.339 1017.15 144.339H1008.55C1007.85 144.339 1007.17 144.136 1006.66 143.626C1006.15 143.117 1005.94 142.432 1005.94 141.732V74.0972C1005.94 73.5529 1006.03 72.9753 1006.31 72.4399C1006.6 71.8888 1007.06 71.457 1007.67 71.1558L1007.7 71.1431L1007.73 71.1323L1008.52 70.8032C1016.76 67.447 1026.22 65.3599 1036.12 65.3599Z" fill="white" stroke="white" stroke-width="2"/>
<path d="M1097.22 53.8435L1097.47 53.8542C1098.05 53.9056 1098.59 54.1378 1099.01 54.5593C1099.41 54.969 1099.65 55.4995 1099.77 56.072L1099.81 56.3201L1099.81 56.3562L1099.81 56.3933L1100.78 73.0886H1118.81C1119.51 73.0886 1120.19 73.2922 1120.7 73.8015C1121.21 74.311 1121.41 74.9961 1121.41 75.696V82.9822C1121.41 83.7227 1121.23 84.4444 1120.72 84.9841C1120.21 85.5345 1119.51 85.74 1118.81 85.74H1100.84V123.951C1100.84 128.605 1102.04 132.161 1104.19 134.546C1106.33 136.915 1109.54 138.259 1113.85 138.26C1115.42 138.26 1118.16 138.127 1120.79 137.976L1120.82 137.974H1120.85C1121.59 137.974 1122.3 138.161 1122.84 138.667C1123.39 139.181 1123.59 139.881 1123.59 140.582V148.303C1123.59 148.898 1123.44 149.531 1123.04 150.058C1122.63 150.603 1122.01 150.94 1121.27 151.038L1121.23 151.043L1121.19 151.045C1118.56 151.195 1115.18 151.347 1113.26 151.347C1105.8 151.347 1099.18 149.332 1094.42 144.901C1089.64 140.458 1086.87 133.711 1086.87 124.537V56.6013C1086.87 55.8613 1087.06 55.1225 1087.61 54.5759C1088.15 54.0294 1088.89 53.8435 1089.63 53.8435H1097.22Z" fill="white" stroke="white" stroke-width="2"/>
<defs>
<linearGradient id="paint0_linear_1062_117" x1="32.2683" y1="-10.0263" x2="147.794" y2="189.978" gradientUnits="userSpaceOnUse">
<stop stop-color="#43B1FF"/>
<stop offset="0.235577" stop-color="#1E70FF"/>
<stop offset="0.557692" stop-color="#8B1FC0"/>
<stop offset="0.927885" stop-color="#D512CD"/>
</linearGradient>
</defs>
</svg>
